{
  "asset" : {
    "generator" : "UE Viewer (umodel) build 1401",
    "version" : "2.0"
  },
  "scene" : 0,
  "scenes" : [
    {
      "nodes" : [ 0 ]
    }
  ],
  "nodes" : [
    {
      "name" : "SM_Cement_01",
      "mesh" : 0
    }
  ],
  "materials" : [
    {
      "name" : "MI_Cement_01",
      "pbrMetallicRoughness" : {
        "baseColorFactor" : [ 0.3, 0.3, 0.3, 1.0 ],
        "metallicFactor" : 0.1,
        "roughnessFactor" : 0.5
      }
    }
  ],
  "meshes" : [
    {
      "primitives" : [
        {
          "attributes" : {
            "POSITION" : 1,
            "NORMAL" : 2,
            "TANGENT" : 3,
            "COLOR_0" : 4,
            "TEXCOORD_0" : 5
          },
          "indices" : 0,
          "material" : 0
        }
      ],
      "name" : "SM_Cement_01"
    }
  ],
  "buffers" : [
    {
      "uri" : "SM_Cement_01.bin",
      "byteLength" : 42420
    }
  ],
  "bufferViews" : [
    {
      "buffer" : 0,
      "byteOffset" : 0,
      "byteLength" : 6696
    },
    {
      "buffer" : 0,
      "byteOffset" : 6696,
      "byteLength" : 8244
    },
    {
      "buffer" : 0,
      "byteOffset" : 14940,
      "byteLength" : 8244
    },
    {
      "buffer" : 0,
      "byteOffset" : 23184,
      "byteLength" : 10992
    },
    {
      "buffer" : 0,
      "byteOffset" : 34176,
      "byteLength" : 2748
    },
    {
      "buffer" : 0,
      "byteOffset" : 36924,
      "byteLength" : 5496
    }
  ],
  "accessors" : [
    {
      "bufferView" : 0,
      "componentType" : 5123,
      "count" : 3348,
      "type" : "SCALAR"
    },
    {
      "bufferView" : 1,
      "min" : [ -0.485086, -0.000211596, -0.663903 ],
      "max" : [ 0.485086, 0.988645, 0.663903 ],
      "componentType" : 5126,
      "count" : 687,
      "type" : "VEC3"
    },
    {
      "bufferView" : 2,
      "componentType" : 5126,
      "count" : 687,
      "type" : "VEC3"
    },
    {
      "bufferView" : 3,
      "componentType" : 5126,
      "count" : 687,
      "type" : "VEC4"
    },
    {
      "bufferView" : 4,
      "normalized" : true,
      "componentType" : 5121,
      "count" : 687,
      "type" : "VEC4"
    },
    {
      "bufferView" : 5,
      "componentType" : 5126,
      "count" : 687,
      "type" : "VEC2"
    }
  ]
}
